# xmcd CD database file
#
# Track frame offsets:
#	150
#	20439
#	45524
#	64911
#	86961
#	106009
#	137218
#	151768
#	171755
#	216305
#	253449
#	272159
#
# Disc length: 4777 seconds
#
# Revision: 1
# Processed by: cddbd v1.5.2PL0 Copyright (c) Steve Scherf et al.
# Submitted via: CDex 1.51
#
DISCID=ac12a70c
DTITLE=Twin Dragons - Live in Moscow 2002
DYEAR=2002
DGENRE=Blues
TTITLE0=Step'n Stone
TTITLE1=Feel Like Cryn
TTITLE2=Superstitious
TTITLE3=Mother Child
TTITLE4=Spectrum
TTITLE5=Hootchie Cootchie
TTITLE6=Killin Floor
TTITLE7=Evil
TTITLE8=Little Red Rooster
TTITLE9=Crossroad
TTITLE10=In the Mood
TTITLE11=Some Fun
EXTD=YEAR: 2002
EXTT0=
EXTT1=
EXTT2=
EXTT3=
EXTT4=
EXTT5=
EXTT6=
EXTT7=
EXTT8=
EXTT9=
EXTT10=
EXTT11=
PLAYORDER=
